<?xml version="1.0" encoding="UTF-8"?><svg id="choco" xmlns="http://www.w3.org/2000/svg" viewBox="0 0 838.37 757.86"><defs><style>.cls-1{fill:#b15721;}.cls-2{fill:#ffeed4;}.cls-3{fill:#fff;}.cls-4{fill:#eeac37;}.cls-5{fill:#4f270c;}.cls-6{fill:#7c4017;}</style></defs><path class="cls-5" d="M110.42,461.37s-48.81-.92-67.73-15.56c0,0-45.46-22.42-42.56-91.68,0,0-.36-129.15,111.92-252,0,0,40.27-41.9,98.85-48.81,0,0,93.56-26.03,213.97,83.39,0,0,95.19,72.81,95.19,150.91,0,0,1.12,51.86-54.81,81.56,0,0-2.73,1.19-1.96,2.52,0,0,31.53,61.63,40.07,128.75,0,0,.41,2.84.69,3.6,0,0-.41.33,4.63-.2,0,0,17.49-.84,24.81-16.5,0,0,8.85-13.73,19.83-13.73h5.9s1.02.1,1.53-.1c0,0,.71-.1.92-1.42,0,0,3.11-16.17,3.34-18.07,0,0,.15-1.25-.08-1.75,0,0-.81-.94-1.83-1.35,0,0-39.46-13.78-39-42.92,0,0-.53-25.78,38.21-65.44,0,0,31.58-38.14,69.1-36.92,0,0,46.53-3.36,63.92,63,0,0,16.63,68.64,3.2,84.97,0,0-8.69,23.03-55.37,17.69,0,0-2.75-.84-3.25,0,0,0-.66,1.35-.66,3.76,0,0-1.78,9.85-1.21,11.22,0,0-.31,1.53.15,2.21,0,0-.34-.01,1.41.75,0,0,31.04,14.26,29.67,55.3,0,0,.15,68.44-59.64,71.49,0,0-9.71-.2-16.32-3.41,0,0-.97-.71-2.34-.71,0,0-2.08.41-3,1.17,0,0-29.21,13.68-60.84,13.47,0,0-14.75-.71-20.24-1.68,0,0-1.22-.71-1.68-.2,0,0-.15.56-.15,1.42,0,0-8.69,81.1-81.3,108.56,0,0-46.37,24.2-122.95,22.98,0,0-130.58,7.32-172.68-65.9l-.86-3.22s-1.82-1.82-3.39-3.37c-.63-.62-1.22-1.2-1.64-1.61-1.47-1.42-32.03-18.86-33.86-75.61,0,0,2.75-39.97,10.07-68.03,0,0,11.08-54,12.31-73.73,0,0,.57-2.17.34-3.58,0,0,.2-1.28-.63-1.23Z"/><path class="cls-3" d="M151.15,324.49s83.8-58.98,214.37-60.2c0,0,5.29-.81,6.61,0,0,0,1.73,1.83,3.46,4.27,0,0,74.64,79.63,102.1,185.19,0,0,41.49,150.1-11.59,228.81,0,0-35.92,55.53-143.96,58.58,0,0-112.31,9.15-163.56-34.78,0,0-.92-1.02,0-1.73,0,0,.71-.61,3.15.61,0,0,29.59,10.47,45.46,9.66,0,0,34.47.1,53.59-20.24,0,0,20.75-16.07,30.51-67.73,0,0-.81-2.49.2-3.41,0,0,.61-.71,3.66.31,0,0,4.58,1.12,9.76,1.02,0,0,15.46-1.12,19.83-8.34,0,0,7.27-7.53,7.27-35.59,0,0-.81-20.75-4.88-29.29,0,0-1.37-3.71-1.98-4.02,0,0-.51-1.22,1.93-.31,0,0,25.22.97,60.3-28.63,0,0,35.39-32.95,33.25-80.54,0,0,1.68-47.75-37.07-48.36,0,0-12.05-2.44-33.71,7.17,0,0-23.95,14.34-78.41,11.75,0,0-30.05-5.19-48.81,20.59,0,0-6.25,8.29-6.25,25.68,0,0,.76,26.54,15.41,47.14,0,0,18.61,21.2,28.83,28.07,0,0,3.51,1.53,3.2,3.05,0,0-.15,1.22-3.51,2.44,0,0-12.97,5.49-21.2,14.8,0,0-12.81,13.58-14.19,24.71,0,0,.61,3.2-.46,4.58,0,0-2.9.31-6.1-.92,0,0-18.92-5.8-26.85-18.61,0,0-2.14-7.17-10.22-4.12,0,0-6.56,2.44-.46,16.32,0,0,10.22,14.95,30.36,19.37,0,0,25.02,4.73,37.83,12.81,0,0,16.32,12.36,14.34,20.59,0,0,0,6.56-8.69,3.97,0,0-22.88-10.37-24.71,1.53,0,0-2.59,6.56,5.95,9.76,0,0,22.42,4.58,23.64,13.88,0,0,1.22,9.92-6.41,14.03,0,0-6.1,4.88-21.97-.76,0,0-7.93-1.37-8.69,5.95,0,0-2.44,6.1,6.56,9.15,0,0,8.54,1.98,13.12,2.14,0,0,3.05-.46,3.2.92,0,0,.31,1.22-3.05,2.75,0,0-14.95,11.29-37.22,10.07,0,0-52.32-1.68-79.17-33.71,0,0-21.66-22.42-20.9-59.95,0,0,.86-38.44,8.8-62.24,0,0,8.58-32.82,10.21-56.82,0,0,4.47-37.02,4.07-47.19,0,0,13.42-93.15,18.31-106.58,0,0-.31-1.53,1.07-5.34,0,0,1.35-.71,3.67-2.26Z"/><path class="cls-2" d="M388.8,284.02c-8.07-9.99-13.21-15.47-13.21-15.47-1.73-2.44-3.46-4.27-3.46-4.27-1.32-.81-6.61,0-6.61,0-130.58,1.22-214.37,60.2-214.37,60.2-2.33,1.55-3.67,2.26-3.67,2.26-1.37,3.81-1.07,5.34-1.07,5.34-1.1,3.01-2.62,10.05-4.33,19.14,0,0,54-36.98,121.43-54.06,0,0,46.07-11.85,120.05-12.76l5.24-.38Z"/><path class="cls-6" d="M126.8,343.3s-12.56,57.61-15.56,95.64c-.08.96.76,3.36-.76,5.34h-2.9s-44.54,1.22-61.63-14.95c0,0-34.17-25.17-30.81-72.92,0,0-.05-86.69,73.17-200.49,0,0,39.05-63.76,100.98-80.54,0,0,79.02-27.76,156.51,23.49,0,0,92.14,57.66,136.98,121.73,0,0,39.05,58.88,10.98,101.9,0,0-19.53,25.02-32.64,30.2,0,0-.61,2.44-4.58,1.53,0,0,0,1.53-3.66-4.27,0,0-43.93-70.17-54.92-80.85,0,0-4.78-2.54-3.56-4.17,0,0,2.44-.41,5.49-.41,0,0,42.71,3.86,57.97,20.54,0,0,4.27,3.66,4.27,10.37,0,0-.61,9.15,7.32,10.37,0,0,10.37.81,10.37-15.05,0,0,1.42-16.88-18.1-28.07,0,0-24.2-18.1-81.97-18.51,0,0-90.41-2.85-159.36,24.61,0,0-108.92,37.22-152.85,104.34,0,0-12.2,24.1-.31,37.83,0,0,9.15,10.68,15.56,5.19,0,0,4.88-4.64-.61-11.93,0,0-6.1-11.26.92-21.94,0,0,15.25-25.63,38.14-41.19,0,0,4.27-4.58,6.41-3.66,0,0,.71,2.24-.86,5.85Z"/><g id="eye"><path class="cls-5" d="M206.82,390.36s7.78,1.07,7.32-9.92c0,0-.31-9.76,8.54-17.08,0,0,10.68-8.69,20.75-1.83,0,0,7.17,6.25,9,10.22,0,0,5.19,6.23,12.97-.62,0,0,6.86-9.75-6.86-19.67,0,0-11.1-8.69-21.57-8.69,0,0-15.96-2.44-31.06,14.8,0,0-7.78,9.76-6.86,24.1,0,0-.31,9,7.78,8.69Z"/><path class="cls-5" d="M344.56,361.53s7.29.15,7.3-9.61c0,0-1.66-7.17,6.73-13.88,0,0,8.85-5.64,17.08,0,0,0,6.25,5.42,9,10.49,0,0,3.97,7.36,10.98,3.69,0,0,6.25-3.81,1.07-13.58,0,0-11.59-19.07-28.53-18.76,0,0-19.22-1.22-26.54,12.36,0,0-5.19,6.56-5.34,19.07,0,0-1.37,9.76,8.24,10.22Z"/></g><path class="cls-1" d="M290.6,527.02c-8.3-3.15-33.32-13.66-44.61-33.52,0,0-4.19-3.51-4.5-6.18,0,0,.51-1.73,2.08-3,0,0,18.54-18.92,55.49-19.22,0,0,45.34,0,72.95,36.15,0,0,3.66,3.51,3.66,5.49,0,0-.31,1.98-3.51,4.73,0,0-26.85,23.19-53.54,23.64h-3.46s-2.59.1-4.65-2.03c0,0-6.25-4.46-16.25-5.07,0,0-1.97-.36-3.67-1Z"/><path class="cls-6" d="M258.09,553.67s17.39-12.51,29.97-12.28c0,0,16.86-.84,25.78,20.59,0,0,6.56,29.59-1.14,44.85,0,0-4.87,7.02-25.43.84,0,0-49.31-16.09-47.26-33.41,0,0,.99-9.84,18.08-20.59Z"/><g id="mushroom"><path class="cls-6" d="M558.7,372.19s33.36-51.66,71.59-52.88c0,0,37.42-3.05,51.05,60.41,0,0,15.05,57.56,3.05,66.51,0,0-20.34,21.56-82.17,2.24,0,0-65.08-19.12-62.44-40.68,0,0-1.42-8.75,18.92-35.59Z"/><path class="cls-4" d="M583.79,458.96s28.68,8.39,34.93,8.92c0,0,2.75-.08,3.43.92,0,0,.23,1.3,0,2.97,0,0-1.07,7.78-1.75,10.07,0,0,.08,1.98-.46,2.52,0,0-1.6.23-3.43,0,0,0-8.16-.69-15.41,3.2,0,0-10.14,3.58-17.31,15.1,0,0-3.36,9.46-2.06,17.01,0,0,1.53,2.36,1.07,3.89,0,0-.84,1.37-3.58,3.81,0,0-8.62,7.4-8.24,20.75,0,0-.53,13.96,8.16,21.81,0,0,2.82,1.22,3.28,2.36,0,0,.08,1.6-.76,2.75,0,0-4.19,7.17-4.5,8.16,0,0-.08,1.22-1.22,1.68,0,0-3.97.31-5.19,0,0,0-19.98-3.13-20.9-24.25,0,0-.61-13.42,3.97-23.42,0,0,8.31-18.92,10.91-25.17,0,0,9.99-22.58,15.1-50.03,0,0-.15-3.2.53-3.89,0,0,.92-.61,3.43.84Z"/></g><g id="speech_bubble"><path class="cls-3" d="M599.76,519.27s23.03,3.36,20.14,12.97c0,0-1.22,9.15-14.34,4.12,0,0-11.29-4.88-15.86,3.2,0,0-5.34,12.81,2.29,19.22,0,0,4.73,4.12,7.63,5.03,0,0,3.51,1.07,3.2,5.49,0,0,.61,5.49-3.97,8.24,0,0-7.17,5.19-5.64,12.2,0,0,0,10.37,17.39,10.22,0,0,24.1,1.07,38.59-32.49,0,0,10.53-30.66-1.83-48.97,0,0-8.39-19.22-28.53-19.22,0,0-19.22-1.22-21.97,16.02,0,0-1.22,2.75-.31,3.66l3.2.31Z"/><path class="cls-3" d="M508.03,518.76s-1.73-.92-2.24,0c0,0-.31,1.53,0,2.75,0,0,5.64,69.96,2.24,82.98,0,0-1.53,2.44-.64,4.27,0,0,29.57,7.12,64.96-4.88,0,0,2.24-.2,2.44-2.24,0,0,1.02-1.92-4.88-1.67,0,0-36.81-1.78-35.19-42.87,0,0,2.44-21.36,9.76-38.75,0,0,9.97-20.85,10.17-23.08,0,0,1.42-2.64.2-3.66,0,0-2.55-1.42-5.04,2.03,0,0-13.88,20.34-23.64,22.58,0,0-9.25,2.64-18.15,2.54Z"/><path class="cls-5" d="M456.42,76.59S481.74,2.76,603.78.02c0,0,150.71-3.36,219.05,88.47,0,0,55.53,74.14-43.32,132.71,0,0-44.8,28.51-130.61,19.2,0,0-4.84-1.18-6.37-.15,0,0-1.33,1.01-2.82,2.59,0,0-31.83,30.94-62.14,33.79,0,0-16.35,1.42-14.03-9.97,0,0,9.56-27.46,11.8-36.61,0,0,2.24-3.46-.81-4.68,0,0-50.24-13.83-85.93-48.61,0,0-49.63-44.54-32.16-100.17Z"/><path class="cls-3" d="M591.12,256.25s24.19-11.36,42-29.83c0,0-.02-.23,2.45-1.9.74-.5,1.33-.87,2.11-1.02,1.06-.2,2.72-.27,5.16.21,0,0,56.17,6.8,95.68-4.03,0,0,75.97-16.47,83.59-77.34,0,0,5.34-30.81-23.03-59.34,0,0-42.1-46.53-115.78-58.58,0,0-47.59-11.9-90.38-8.24,0,0-56.36,2.9-89.31,26.24,0,0-34.81,22.53-34.7,61.38,0,0-2.82,31.21,31.04,61.87,0,0,42.42,35.73,79.79,43.67,0,0,9.46.92,12.2,5.95,0,0,3.36,5.64-1.22,20.75,0,0-3.36,11.9-6.1,18.31,0,0-1.17,2.56-.31,3.97,0,0,.58,1.45,6.8-2.06Z"/><path class="cls-5" d="M503.89,61.59s8.54-2.44,11.59,5.95c0,0,5.03,16.17,6.86,23.03,0,0,.46,3.2,1.83,3.2,0,0,1.07-.15,3.97-6.1,0,0,9.46-16.17,12.51-19.53,0,0,4.12-5.03,10.07-1.83,0,0,5.03,2.42,1.37,11.2,0,0-15.98,24.37-20.4,30.78,0,0-1.53,1.75-2.17,5.61,0,0-3.01,12.54-3.62,22.91,0,0-1.22,4.42-6.75,4.39,0,0-7.17.76-7.02-8.39,0,0,2.59-17.39,2.75-21.05,0,0-.61-5.19-1.83-7.78,0,0-8.69-18.92-12.36-29.59,0,0-3.66-10.07,3.2-12.81Z"/><path class="cls-5" d="M556.87,90.12s7.25-.61,6.94,7.02c0,0-3.42,22.27-3.47,30.05,0,0-.12,7.17,6.36,7.25,0,0,6.41.31,8.24-6.79,0,0,3.2-19.6,3.43-25.63,0,0,.31-7.86,6.71-7.63,0,0,7.32-.31,7.55,7.63,0,0-3.28,27-3.51,30.89s.23-3.89.23-3.89c0,0-1.63,11.1-1.36,15.16,0,0,.56,6.25-7.11,6.96,0,0-5.8,0-7.02-4.81,0,0-.52-2.41-1.22-2.52,0,0-.27-.55-1.3.99,0,0-3.81,4.12-8.77,4.12,0,0-12.13-.46-15.33-12.13,0,0-1.22-11.59,0-22.5,0,0,1.3-13.65,2.59-19.37,0,0,1.98-5.19,7.02-4.81Z"/><path class="cls-5" d="M608.4,96.91s5.19-.38,6.03,4.27c0,0,.15,1.53,1.75,1.6,0,0,.96.23,2.85-1.48,0,0,2.4-2.29,7.09-3.09,0,0,7.13-1.31,11.34,6.48,0,0,.61,2.44,2.36,2.44,0,0,1.45.46,3.13-1.6,0,0,4.27-4.04,10.53-4.04,0,0,11.86.13,14.87,9.61,0,0,1.87,8.83-2.67,40.65,0,0-.84,6.86-6.71,6.56,0,0-6.18.38-6.64-7.17,0,0,2.67-21.36,2.59-27.15,0,0,.24-4.51-1.68-6.64,0,0-1.45-1.75-4.04-1.83,0,0-1.92-.43-4.42,2.21,0,0-2.29,1.91-3.89,7.4,0,0-2.18,10.14-2.43,20.97,0,0-.17,9.15-6.73,8.92,0,0-8.31,0-7.47-9.15,0,0,1.98-22.42,2.44-28.37,0,0-.08-5.34-5.03-5.64,0,0-3.66-.61-5.95,3.2,0,0-3.58,5.19-5.42,29.9,0,0,.08,7.4-7.32,7.17,0,0-6.86.69-6.64-8.69,0,0,3.05-28.75,4.27-37.45,0,0,.84-9.38,7.78-9.08Z"/><path class="cls-5" d="M685.72,106.11s5.19-.38,6.03,4.27c0,0,.15,1.53,1.75,1.6,0,0,.96.23,2.85-1.48,0,0,2.4-2.29,7.09-3.09,0,0,7.13-1.31,11.34,6.48,0,0,.61,2.44,2.36,2.44,0,0,1.45.46,3.13-1.6,0,0,4.27-4.04,10.53-4.04,0,0,11.86.13,14.87,9.61,0,0,1.87,8.83-2.67,40.65,0,0-.84,6.86-6.71,6.56,0,0-6.18.38-6.64-7.17,0,0,2.67-21.36,2.59-27.15,0,0,.24-4.51-1.68-6.64,0,0-1.45-1.75-4.04-1.83,0,0-1.92-.43-4.42,2.21,0,0-2.29,1.91-3.89,7.4,0,0-2.18,10.14-2.43,20.97,0,0-.17,9.15-6.73,8.92,0,0-8.31,0-7.47-9.15,0,0,1.98-22.42,2.44-28.37,0,0-.08-5.34-5.03-5.64,0,0-3.66-.61-5.95,3.2,0,0-3.58,5.19-5.42,29.9,0,0,.08,7.4-7.32,7.17,0,0-6.86.69-6.64-8.69,0,0,3.05-28.75,4.27-37.45,0,0,.84-9.38,7.78-9.08Z"/><path class="cls-5" d="M758.38,114.45s8.62-2.44,9.99,8.08c0,0,4.35,15.41,4.81,24.86,0,0,.23,3.66,1.37,3.66,0,0,.84,1.37,2.75-3.66,0,0,5.57-18.53,9.92-25.63,0,0,4.88-5.57,9.61-2.97,0,0,6.03,3.05,2.9,10.83,0,0-13.81,33.71-24.71,48.97,0,0-9.92,13.88-19.83,13.65,0,0-9.32-.84-9.04-7.17,0,0-1.1-5.34,4.85-7.7,0,0,3.66-.92,10.3-5.72,0,0,2.9-1.14,1.6-8.24,0,0-8.08-31.65-9.61-37.6,0,0-2.21-9.53,5.11-11.36Z"/></g></svg>